<?xml version="1.0" standalone="no"?>
<!DOCTYPE svg PUBLIC "-//W3C//DTD SVG 20010904//EN"
 "http://www.w3.org/TR/2001/REC-SVG-20010904/DTD/svg10.dtd">
<svg version="1.0" xmlns="http://www.w3.org/2000/svg"
 width="306.000000pt" height="306.000000pt" viewBox="0 0 306.000000 306.000000"
 preserveAspectRatio="xMidYMid meet">
<metadata>
Created by potrace 1.11, written by Peter Selinger 2001-2013
</metadata>
<g transform="translate(0.000000,306.000000) scale(0.100000,-0.100000)"
fill="#000000" stroke="none">
<path d="M1800 2369 c-112 -118 -123 -123 -259 -126 -64 -1 -123 -2 -132 -2
-14 -1 -16 -18 -16 -125 0 -68 -3 -129 -7 -134 -4 -6 -16 -8 -29 -5 -12 3 -53
7 -92 8 -154 5 -315 -91 -386 -228 -19 -37 -21 -38 -42 -23 -165 118 -409 59
-499 -121 -21 -42 -28 -48 -58 -51 -53 -5 -116 -39 -148 -80 -90 -114 -56
-267 73 -335 38 -20 56 -21 385 -23 190 -1 349 -2 353 -3 4 -1 -1 -11 -12 -22
-38 -41 -56 -91 -55 -159 1 -96 44 -167 129 -213 40 -22 41 -22 870 -24 l830
-3 50 24 c82 38 132 108 139 198 5 64 -17 133 -57 178 -29 32 -28 33 24 44 36
8 86 56 95 92 5 18 1 45 -9 73 -11 30 -13 50 -6 62 34 64 -14 138 -103 160
-82 19 -216 -7 -219 -44 0 -6 -5 0 -10 14 -25 67 -127 62 -150 -8 l-11 -33
-29 24 c-16 14 -38 27 -49 31 -11 3 -20 12 -20 18 0 24 43 81 115 153 41 41
75 78 75 82 0 4 -37 43 -82 87 -44 44 -88 96 -96 115 -10 25 -15 70 -14 153
l0 117 -31 1 c-18 0 -68 1 -112 1 -125 0 -141 7 -243 108 -50 50 -92 90 -94
89 -2 -1 -32 -32 -68 -70z m800 -1019 c8 -15 7 -25 -3 -40 -14 -20 -15 -20
-31 6 -17 24 -17 26 1 40 23 17 20 17 33 -6z"/>
</g>
</svg>
